<svg xmlns="http://www.w3.org/2000/svg" viewBox="0 0 383.84 51.76"><defs><style>.cls-1{fill:#656c73;}.cls-2{fill:#ea4335;}.cls-3{fill:#4285f4;}.cls-4{fill:#fbbc04;}.cls-5{fill:#0f9d58;}</style></defs><g id="Layer_2" data-name="Layer 2"><g id="Layer_1-2" data-name="Layer 1"><path class="cls-1" d="M72.49,22.11a10,10,0,0,1-3.77-3.76,10.42,10.42,0,0,1-1.38-5.29,10.45,10.45,0,0,1,1.38-5.3A10.08,10.08,0,0,1,72.49,4a10.24,10.24,0,0,1,5.19-1.36,11,11,0,0,1,4.14.78A8.25,8.25,0,0,1,85,5.62l-1.7,1.7a6.11,6.11,0,0,0-2.44-1.8,8.07,8.07,0,0,0-3.19-.63,7.87,7.87,0,0,0-3.91,1,7.76,7.76,0,0,0-2.93,2.87,8.26,8.26,0,0,0-1.1,4.28,8.23,8.23,0,0,0,1.1,4.27,7.68,7.68,0,0,0,2.93,2.87,7.88,7.88,0,0,0,9.63-1.26A6.22,6.22,0,0,0,84.57,17a8.15,8.15,0,0,0,.53-2.42H77.74v-2.2h9.58a7.6,7.6,0,0,1,.14,1.44,11.25,11.25,0,0,1-.58,3.59A7.9,7.9,0,0,1,85,20.5a9.65,9.65,0,0,1-7.33,3A10.25,10.25,0,0,1,72.49,22.11Z"/><path class="cls-1" d="M92.68,22.52a6.79,6.79,0,0,1-2.53-2.65,7.81,7.81,0,0,1-.9-3.75,7.87,7.87,0,0,1,.9-3.75,6.76,6.76,0,0,1,2.53-2.64,7,7,0,0,1,3.65-1,7.09,7.09,0,0,1,3.66,1,6.72,6.72,0,0,1,2.54,2.64,7.87,7.87,0,0,1,.9,3.75,7.81,7.81,0,0,1-.9,3.75A6.75,6.75,0,0,1,100,22.52a7.09,7.09,0,0,1-3.66,1A7,7,0,0,1,92.68,22.52Zm6-1.83a4.7,4.7,0,0,0,1.74-1.82,5.67,5.67,0,0,0,.65-2.75,5.63,5.63,0,0,0-.65-2.74,4.8,4.8,0,0,0-1.74-1.83,4.56,4.56,0,0,0-4.66,0,4.8,4.8,0,0,0-1.74,1.83,5.63,5.63,0,0,0-.65,2.74,5.67,5.67,0,0,0,.65,2.75A4.7,4.7,0,0,0,94,20.69a4.56,4.56,0,0,0,4.66,0Z"/><path class="cls-1" d="M108.47,22.52A6.84,6.84,0,0,1,106,19.87a7.81,7.81,0,0,1-.9-3.75,7.87,7.87,0,0,1,.9-3.75,6.81,6.81,0,0,1,2.52-2.64,7.46,7.46,0,0,1,7.32,0,6.72,6.72,0,0,1,2.54,2.64,7.87,7.87,0,0,1,.9,3.75,7.81,7.81,0,0,1-.9,3.75,6.75,6.75,0,0,1-2.54,2.65,7.46,7.46,0,0,1-7.32,0Zm6-1.83a4.7,4.7,0,0,0,1.74-1.82,5.67,5.67,0,0,0,.65-2.75,5.63,5.63,0,0,0-.65-2.74,4.8,4.8,0,0,0-1.74-1.83,4.56,4.56,0,0,0-4.66,0,4.8,4.8,0,0,0-1.74,1.83,5.52,5.52,0,0,0-.65,2.74,5.56,5.56,0,0,0,.65,2.75,4.7,4.7,0,0,0,1.74,1.82,4.56,4.56,0,0,0,4.66,0Z"/><path class="cls-1" d="M123.61,28.3a6,6,0,0,1-2.15-2.79l2.2-.92a4.05,4.05,0,0,0,1.49,2,4.29,4.29,0,0,0,2.55.76,4.37,4.37,0,0,0,3.39-1.28,5,5,0,0,0,1.18-3.57V21h-.11a5.27,5.27,0,0,1-1.92,1.75,5.72,5.72,0,0,1-2.84.7,6,6,0,0,1-3.27-.95,6.84,6.84,0,0,1-2.39-2.63,7.87,7.87,0,0,1-.89-3.78,7.83,7.83,0,0,1,.89-3.77,6.77,6.77,0,0,1,2.39-2.63,6,6,0,0,1,3.27-1,5.82,5.82,0,0,1,2.84.69,5.29,5.29,0,0,1,1.92,1.76h.11v-2h2.26V22.48a7.85,7.85,0,0,1-.89,3.87,5.74,5.74,0,0,1-2.44,2.37,7.67,7.67,0,0,1-3.5.78A6.58,6.58,0,0,1,123.61,28.3Zm6.4-7.6a4.52,4.52,0,0,0,1.66-1.8,5.82,5.82,0,0,0,.63-2.78,5.92,5.92,0,0,0-.63-2.79,4.4,4.4,0,0,0-1.66-1.8,4.3,4.3,0,0,0-2.25-.62,4.26,4.26,0,0,0-2.26.63,4.56,4.56,0,0,0-1.66,1.81,5.78,5.78,0,0,0-.62,2.77,5.82,5.82,0,0,0,.62,2.78,4.6,4.6,0,0,0,1.66,1.8,4.35,4.35,0,0,0,4.51,0Z"/><path class="cls-1" d="M137.37,3.08h2.37V23h-2.37Z"/><path class="cls-1" d="M145.35,22.53a6.61,6.61,0,0,1-2.46-2.62,7.86,7.86,0,0,1-.89-3.79,8.26,8.26,0,0,1,.83-3.69,6.5,6.5,0,0,1,2.39-2.67,6.43,6.43,0,0,1,3.55-1,6.75,6.75,0,0,1,3.52.9,5.94,5.94,0,0,1,2.33,2.55,8.48,8.48,0,0,1,.81,3.79,1.84,1.84,0,0,1-.06.56h-11a5,5,0,0,0,.76,2.63,4.36,4.36,0,0,0,1.74,1.6,4.6,4.6,0,0,0,2.16.53,4.43,4.43,0,0,0,4-2.56l2.09,1a7.19,7.19,0,0,1-2.47,2.69,7.37,7.37,0,0,1-7.36.07Zm7.57-7.94a4.38,4.38,0,0,0-.47-1.67,3.54,3.54,0,0,0-1.36-1.42,4.39,4.39,0,0,0-2.38-.59,4,4,0,0,0-2.7,1,4.54,4.54,0,0,0-1.45,2.68Z"/><path class="cls-1" d="M164.48,3.08h6.05a10.8,10.8,0,0,1,5.35,1.27,8.68,8.68,0,0,1,3.51,3.52,10.7,10.7,0,0,1,1.23,5.19,10.66,10.66,0,0,1-1.23,5.18,8.77,8.77,0,0,1-3.51,3.53A10.91,10.91,0,0,1,170.53,23h-6.05Zm6.05,17.7a7.6,7.6,0,0,0,5.6-2,7.59,7.59,0,0,0,2.06-5.68,7.61,7.61,0,0,0-2.06-5.69,7.64,7.64,0,0,0-5.6-2h-3.68V20.78Z"/><path class="cls-1" d="M186,22.53a6.54,6.54,0,0,1-2.46-2.62,7.86,7.86,0,0,1-.9-3.79,8.13,8.13,0,0,1,.84-3.69,6.55,6.55,0,0,1,2.38-2.67,6.46,6.46,0,0,1,3.56-1,6.78,6.78,0,0,1,3.52.9,6,6,0,0,1,2.33,2.55,8.48,8.48,0,0,1,.81,3.79,1.84,1.84,0,0,1-.06.56H185a5.12,5.12,0,0,0,.75,2.63,4.5,4.5,0,0,0,1.74,1.6,4.66,4.66,0,0,0,2.16.53,4.41,4.41,0,0,0,4-2.56l2.09,1a7.08,7.08,0,0,1-2.46,2.69,7.37,7.37,0,0,1-7.36.07Zm7.57-7.94a4.4,4.4,0,0,0-.48-1.67,3.51,3.51,0,0,0-1.35-1.42,4.39,4.39,0,0,0-2.38-.59,4,4,0,0,0-2.7,1,4.54,4.54,0,0,0-1.45,2.68Z"/><path class="cls-1" d="M196.61,9.21h2.57l4.23,11h.06l4.29-11h2.51L204.61,23h-2.4Z"/><path class="cls-1" d="M214.6,22.53a6.64,6.64,0,0,1-2.47-2.62,8,8,0,0,1-.89-3.79,8.13,8.13,0,0,1,.84-3.69A6.45,6.45,0,0,1,218,8.77a6.81,6.81,0,0,1,3.53.9,5.91,5.91,0,0,1,2.32,2.55,8.48,8.48,0,0,1,.81,3.79,2.35,2.35,0,0,1,0,.56h-11a5,5,0,0,0,.75,2.63,4.43,4.43,0,0,0,1.74,1.6,4.66,4.66,0,0,0,2.16.53,4.42,4.42,0,0,0,4-2.56l2.09,1A7.08,7.08,0,0,1,222,22.46a7.37,7.37,0,0,1-7.36.07Zm7.56-7.94a4.21,4.21,0,0,0-.47-1.67,3.58,3.58,0,0,0-1.35-1.42,4.42,4.42,0,0,0-2.38-.59,4,4,0,0,0-2.71,1,4.59,4.59,0,0,0-1.45,2.68Z"/><path class="cls-1" d="M227.07,3.08h2.37V23h-2.37Z"/><path class="cls-1" d="M235.12,22.52a6.7,6.7,0,0,1-2.52-2.65,7.82,7.82,0,0,1-.91-3.75,7.88,7.88,0,0,1,.91-3.75,6.67,6.67,0,0,1,2.52-2.64,7,7,0,0,1,3.65-1,7.1,7.1,0,0,1,3.67,1A6.69,6.69,0,0,1,245,12.37a7.76,7.76,0,0,1,.91,3.75,7.71,7.71,0,0,1-.91,3.75,6.72,6.72,0,0,1-2.53,2.65,7.1,7.1,0,0,1-3.67,1A7,7,0,0,1,235.12,22.52Zm6-1.83a4.56,4.56,0,0,0,1.74-1.82,5.57,5.57,0,0,0,.66-2.75,5.53,5.53,0,0,0-.66-2.74,4.65,4.65,0,0,0-1.74-1.83,4.57,4.57,0,0,0-2.34-.64,4.52,4.52,0,0,0-2.31.64,4.72,4.72,0,0,0-1.74,1.83,5.53,5.53,0,0,0-.66,2.74,5.57,5.57,0,0,0,.66,2.75,4.63,4.63,0,0,0,1.74,1.82,4.42,4.42,0,0,0,2.31.64A4.48,4.48,0,0,0,241.11,20.69Z"/><path class="cls-1" d="M248,9.21h2.26v2h.11a5.31,5.31,0,0,1,1.92-1.77,5.75,5.75,0,0,1,2.9-.71,6,6,0,0,1,3.29,1,7,7,0,0,1,2.4,2.63,7.94,7.94,0,0,1,.89,3.76,7.88,7.88,0,0,1-.89,3.76,7,7,0,0,1-2.4,2.64,6,6,0,0,1-3.29,1,5.92,5.92,0,0,1-2.91-.71,5.12,5.12,0,0,1-1.91-1.8h-.11l.11,1.92v6.16H248Zm9.1,11.48a4.47,4.47,0,0,0,1.67-1.82,5.78,5.78,0,0,0,.63-2.75,5.74,5.74,0,0,0-.63-2.74,4.56,4.56,0,0,0-1.67-1.83,4.37,4.37,0,0,0-4.54,0,4.51,4.51,0,0,0-1.67,1.81,5.81,5.81,0,0,0-.63,2.77,5.85,5.85,0,0,0,.63,2.76,4.5,4.5,0,0,0,1.67,1.83,4.4,4.4,0,0,0,2.27.62A4.24,4.24,0,0,0,257.12,20.69Z"/><path class="cls-1" d="M267.32,22.53a6.64,6.64,0,0,1-2.47-2.62,8,8,0,0,1-.89-3.79,8.13,8.13,0,0,1,.84-3.69,6.55,6.55,0,0,1,2.38-2.67,6.45,6.45,0,0,1,3.55-1,6.79,6.79,0,0,1,3.53.9,6,6,0,0,1,2.33,2.55,8.62,8.62,0,0,1,.8,3.79,2.35,2.35,0,0,1-.05.56h-11a5.12,5.12,0,0,0,.75,2.63,4.5,4.5,0,0,0,1.74,1.6,4.66,4.66,0,0,0,2.16.53,4.41,4.41,0,0,0,4-2.56l2.09,1a7.08,7.08,0,0,1-2.46,2.69,7.37,7.37,0,0,1-7.36.07Zm7.56-7.94a4.21,4.21,0,0,0-.47-1.67,3.58,3.58,0,0,0-1.35-1.42,4.42,4.42,0,0,0-2.38-.59,4,4,0,0,0-2.71,1,4.53,4.53,0,0,0-1.44,2.68Z"/><path class="cls-1" d="M279.79,9.21h2.26v2.26h.11a3.71,3.71,0,0,1,1.6-1.92,4.43,4.43,0,0,1,2.41-.78,4.75,4.75,0,0,1,1.62.27v2.54a4,4,0,0,0-2-.42,3.24,3.24,0,0,0-1.83.57,4.08,4.08,0,0,0-1.35,1.53,4.39,4.39,0,0,0-.5,2.06V23h-2.37Z"/><path class="cls-1" d="M300,22.11a10,10,0,0,1-3.76-3.76,10.42,10.42,0,0,1-1.38-5.29,10.45,10.45,0,0,1,1.38-5.3A10.05,10.05,0,0,1,300,4a10.26,10.26,0,0,1,5.19-1.36,11,11,0,0,1,4.14.78,8.25,8.25,0,0,1,3.19,2.2l-1.7,1.7a6.15,6.15,0,0,0-2.43-1.8,8.16,8.16,0,0,0-3.2-.63,7.9,7.9,0,0,0-3.91,1,7.76,7.76,0,0,0-2.93,2.87,8.26,8.26,0,0,0-1.1,4.28,8.23,8.23,0,0,0,1.1,4.27,7.68,7.68,0,0,0,2.93,2.87,7.88,7.88,0,0,0,9.63-1.26,6.22,6.22,0,0,0,1.17-1.9,8.15,8.15,0,0,0,.53-2.42h-7.36v-2.2h9.59a8.52,8.52,0,0,1,.14,1.44,11.26,11.26,0,0,1-.59,3.59,7.9,7.9,0,0,1-1.87,3.05,9.64,9.64,0,0,1-7.33,3A10.27,10.27,0,0,1,300,22.11Z"/><path class="cls-1" d="M317.66,9.21h2.26v2.26H320a3.71,3.71,0,0,1,1.6-1.92A4.43,4.43,0,0,1,324,8.77a4.79,4.79,0,0,1,1.62.27v2.54a4,4,0,0,0-2-.42,3.22,3.22,0,0,0-1.83.57,4.08,4.08,0,0,0-1.35,1.53,4.27,4.27,0,0,0-.5,2.06V23h-2.37Z"/><path class="cls-1" d="M329.39,22.52a6.7,6.7,0,0,1-2.52-2.65,7.71,7.71,0,0,1-.91-3.75,7.76,7.76,0,0,1,.91-3.75,6.67,6.67,0,0,1,2.52-2.64,7.44,7.44,0,0,1,7.31,0,6.65,6.65,0,0,1,2.54,2.64,7.88,7.88,0,0,1,.91,3.75,7.82,7.82,0,0,1-.91,3.75,6.68,6.68,0,0,1-2.54,2.65,7.44,7.44,0,0,1-7.31,0Zm6-1.83a4.56,4.56,0,0,0,1.74-1.82,5.57,5.57,0,0,0,.66-2.75,5.53,5.53,0,0,0-.66-2.74,4.65,4.65,0,0,0-1.74-1.83,4.57,4.57,0,0,0-2.34-.64,4.52,4.52,0,0,0-2.31.64A4.65,4.65,0,0,0,329,13.38a5.53,5.53,0,0,0-.66,2.74,5.57,5.57,0,0,0,.66,2.75,4.56,4.56,0,0,0,1.74,1.82,4.42,4.42,0,0,0,2.31.64A4.48,4.48,0,0,0,335.38,20.69Z"/><path class="cls-1" d="M343.61,22a5.92,5.92,0,0,1-1.32-4.09V9.21h2.37v8.31q0,3.81,3.43,3.81a3.41,3.41,0,0,0,2-.64,4.15,4.15,0,0,0,1.4-1.67,5.1,5.1,0,0,0,.49-2.17V9.21h2.34V23h-2.23V21H352a4.92,4.92,0,0,1-1.86,1.78,5.1,5.1,0,0,1-2.66.73A5,5,0,0,1,343.61,22Z"/><path class="cls-1" d="M357.45,9.21h2.26v2h.11a5.16,5.16,0,0,1,1.92-1.77,5.72,5.72,0,0,1,2.9-.71,6,6,0,0,1,3.29,1,6.91,6.91,0,0,1,2.39,2.63,7.82,7.82,0,0,1,.89,3.76,7.76,7.76,0,0,1-.89,3.76,6.87,6.87,0,0,1-2.39,2.64,6,6,0,0,1-3.29,1,5.86,5.86,0,0,1-2.91-.71,5,5,0,0,1-1.91-1.8h-.11l.11,1.92v6.16h-2.37Zm9.1,11.48a4.61,4.61,0,0,0,1.67-1.82,5.78,5.78,0,0,0,.63-2.75,5.74,5.74,0,0,0-.63-2.74,4.71,4.71,0,0,0-1.67-1.83,4.35,4.35,0,0,0-2.27-.64,4.29,4.29,0,0,0-2.27.63,4.53,4.53,0,0,0-1.68,1.81,5.92,5.92,0,0,0-.62,2.77,6,6,0,0,0,.62,2.76A4.52,4.52,0,0,0,362,20.71a4.38,4.38,0,0,0,2.27.62A4.26,4.26,0,0,0,366.55,20.69Z"/><path class="cls-1" d="M374.61,22.36a5.92,5.92,0,0,1-2.14-2.76l2.09-.91a4.42,4.42,0,0,0,1.57,2,3.82,3.82,0,0,0,2.22.7,3.89,3.89,0,0,0,2.21-.59,1.64,1.64,0,0,0,.23-2.76,6.1,6.1,0,0,0-2.25-.91l-1.89-.48A6.11,6.11,0,0,1,374,15.34a3.13,3.13,0,0,1-1.1-2.51,3.38,3.38,0,0,1,.74-2.2,4.58,4.58,0,0,1,2-1.39,7.28,7.28,0,0,1,2.67-.47,6.49,6.49,0,0,1,3.25.82,4.6,4.6,0,0,1,2.08,2.32l-2.09.9a3,3,0,0,0-1.35-1.48,4.27,4.27,0,0,0-2-.47,3.68,3.68,0,0,0-2,.53,1.56,1.56,0,0,0-.88,1.36,1.34,1.34,0,0,0,.57,1.14,5.58,5.58,0,0,0,1.83.75l2.06.51a6.38,6.38,0,0,1,3.08,1.57,3.46,3.46,0,0,1,1,2.5,3.63,3.63,0,0,1-.7,2.17,4.58,4.58,0,0,1-1.95,1.53,7,7,0,0,1-2.84.56A6.16,6.16,0,0,1,374.61,22.36Z"/><path class="cls-2" d="M13.1,13.36,22,8.2A4.4,4.4,0,1,0,17.63.59L2.2,9.5Z"/><path class="cls-3" d="M19.83,26.61a4.39,4.39,0,0,0,2.2-8.2L6.59,9.5A4.39,4.39,0,0,0,2.2,17.11L17.63,26A4.38,4.38,0,0,0,19.83,26.61Z"/><path class="cls-4" d="M35.18,26.61A4.34,4.34,0,0,0,37.37,26l15.44-8.91L42.05,13.17,33,18.41a4.39,4.39,0,0,0,2.2,8.2Z"/><path class="cls-5" d="M50.61,17.7a4.39,4.39,0,0,0,2.2-8.2L37.37.59A4.39,4.39,0,0,0,33,8.2l15.43,8.91A4.38,4.38,0,0,0,50.61,17.7Z"/><text/></g></g></svg>